<?xml version="1.0" encoding="utf-8"?>
<!-- Generator: Adobe Illustrator 21.0.0, SVG Export Plug-In . SVG Version: 6.00 Build 0)  -->
<svg version="1.1" id="Layer_1" xmlns="http://www.w3.org/2000/svg" xmlns:xlink="http://www.w3.org/1999/xlink" x="0px" y="0px"
	 viewBox="0 0 841.9 595.3" style="enable-background:new 0 0 841.9 595.3;" xml:space="preserve">
<style type="text/css">
	.st0{fill:#4285F4;}
</style>
<g>
	<path class="st0" d="M171.5,420.1h-25.7L140,436h-5l21.4-56.5h4.5l21.4,56.5h-5L171.5,420.1z M147.3,416.1H170l-11.3-30.8
		L147.3,416.1z"/>
	<path class="st0" d="M189.3,414.6c0-6.5,1.5-11.7,4.4-15.6c2.9-3.9,6.9-5.8,11.9-5.8c5.7,0,10,2.2,13,6.7v-23.6h4.6V436h-4.3
		l-0.2-5.6c-3,4.2-7.4,6.4-13.1,6.4c-4.8,0-8.7-1.9-11.7-5.8c-3-3.9-4.4-9.2-4.4-15.8V414.6z M194,415.4c0,5.4,1.1,9.6,3.2,12.7
		c2.1,3.1,5.2,4.6,9.1,4.6c5.7,0,9.8-2.5,12.2-7.6v-19.7c-2.4-5.5-6.4-8.2-12.1-8.2c-3.9,0-7,1.5-9.1,4.6
		C195.1,404.9,194,409.5,194,415.4z"/>
	<path class="st0" d="M235.1,414.6c0-6.5,1.5-11.7,4.4-15.6c2.9-3.9,6.9-5.8,11.9-5.8c5.7,0,10,2.2,13,6.7v-23.6h4.6V436h-4.3
		l-0.2-5.6c-3,4.2-7.4,6.4-13.1,6.4c-4.8,0-8.7-1.9-11.7-5.8c-3-3.9-4.4-9.2-4.4-15.8V414.6z M239.8,415.4c0,5.4,1.1,9.6,3.2,12.7
		c2.1,3.1,5.2,4.6,9.1,4.6c5.7,0,9.8-2.5,12.2-7.6v-19.7c-2.4-5.5-6.4-8.2-12.1-8.2c-3.9,0-7,1.5-9.1,4.6
		C240.9,404.9,239.8,409.5,239.8,415.4z"/>
	<path class="st0" d="M309.5,413v23h-4.8v-56.5H324c5.9,0,10.5,1.5,13.9,4.5c3.4,3,5.1,7.1,5.1,12.4c0,5.3-1.6,9.4-4.9,12.3
		c-3.3,2.9-8,4.3-14.2,4.3H309.5z M309.5,408.9H324c4.6,0,8.2-1.1,10.6-3.3c2.4-2.2,3.7-5.3,3.7-9.2c0-3.9-1.2-7-3.6-9.4
		s-5.9-3.5-10.3-3.6h-14.8V408.9z"/>
	<path class="st0" d="M359.4,436h-4.7v-59.7h4.7V436z"/>
	<path class="st0" d="M400.7,430.7c-2.8,4.1-7.3,6.1-13.4,6.1c-4.5,0-7.9-1.3-10.2-3.9c-2.3-2.6-3.5-6.5-3.6-11.6V394h4.6v26.8
		c0,8,3.2,12,9.7,12c6.7,0,11-2.8,12.8-8.4V394h4.7v42h-4.5L400.7,430.7z"/>
	<path class="st0" d="M444.1,425.3c0-2.3-0.9-4.2-2.8-5.6c-1.9-1.4-4.6-2.5-8.4-3.3c-3.7-0.8-6.6-1.7-8.7-2.7
		c-2.1-1-3.6-2.3-4.6-3.7c-1-1.5-1.5-3.3-1.5-5.4c0-3.3,1.4-6.1,4.2-8.2c2.8-2.2,6.3-3.2,10.6-3.2c4.7,0,8.4,1.2,11.3,3.5
		c2.8,2.3,4.3,5.3,4.3,9.1h-4.7c0-2.5-1-4.5-3.1-6.1s-4.7-2.4-7.8-2.4c-3.1,0-5.5,0.7-7.4,2c-1.9,1.4-2.8,3.1-2.8,5.3
		c0,2.1,0.8,3.7,2.3,4.9c1.5,1.2,4.3,2.2,8.4,3.2s7.1,2,9.2,3.1c2,1.1,3.5,2.4,4.5,3.9c1,1.5,1.5,3.4,1.5,5.6c0,3.5-1.4,6.4-4.3,8.5
		c-2.9,2.1-6.6,3.2-11.2,3.2c-4.9,0-8.9-1.2-11.9-3.6c-3-2.4-4.6-5.4-4.6-9h4.7c0.2,2.7,1.3,4.8,3.4,6.3c2.1,1.5,4.9,2.3,8.4,2.3
		c3.2,0,5.9-0.7,7.8-2.1C443.1,429.3,444.1,427.5,444.1,425.3z"/>
	<path class="st0" d="M477.1,436.8c-3.6,0-6.8-0.9-9.7-2.6c-2.9-1.8-5.1-4.2-6.7-7.4c-1.6-3.1-2.4-6.7-2.4-10.6v-1.7
		c0-4,0.8-7.7,2.3-10.9c1.6-3.2,3.7-5.8,6.5-7.6c2.8-1.9,5.8-2.8,9.1-2.8c5.1,0,9.1,1.7,12.1,5.2c3,3.5,4.5,8.2,4.5,14.3v2.6h-30
		v0.9c0,4.8,1.4,8.7,4.1,11.9c2.7,3.2,6.2,4.8,10.3,4.8c2.5,0,4.7-0.5,6.6-1.4c1.9-0.9,3.6-2.4,5.2-4.3l2.9,2.2
		C488.5,434.3,483.6,436.8,477.1,436.8z M476.2,397.2c-3.5,0-6.4,1.3-8.8,3.8c-2.4,2.6-3.9,6-4.4,10.3h25.2v-0.5
		c-0.1-4-1.3-7.3-3.5-9.9C482.6,398.5,479.7,397.2,476.2,397.2z"/>
	<path class="st0" d="M528.6,425.3c0-2.3-0.9-4.2-2.8-5.6c-1.9-1.4-4.6-2.5-8.4-3.3c-3.7-0.8-6.6-1.7-8.7-2.7
		c-2.1-1-3.6-2.3-4.6-3.7c-1-1.5-1.5-3.3-1.5-5.4c0-3.3,1.4-6.1,4.2-8.2c2.8-2.2,6.3-3.2,10.6-3.2c4.7,0,8.4,1.2,11.3,3.5
		c2.8,2.3,4.3,5.3,4.3,9.1h-4.7c0-2.5-1-4.5-3.1-6.1s-4.7-2.4-7.8-2.4c-3.1,0-5.5,0.7-7.4,2c-1.9,1.4-2.8,3.1-2.8,5.3
		c0,2.1,0.8,3.7,2.3,4.9c1.5,1.2,4.3,2.2,8.4,3.2s7.1,2,9.2,3.1c2,1.1,3.5,2.4,4.5,3.9c1,1.5,1.5,3.4,1.5,5.6c0,3.5-1.4,6.4-4.3,8.5
		c-2.9,2.1-6.6,3.2-11.2,3.2c-4.9,0-8.9-1.2-11.9-3.6c-3-2.4-4.6-5.4-4.6-9h4.7c0.2,2.7,1.3,4.8,3.4,6.3c2.1,1.5,4.9,2.3,8.4,2.3
		c3.2,0,5.9-0.7,7.8-2.1C527.6,429.3,528.6,427.5,528.6,425.3z"/>
	<path class="st0" d="M572.2,432h27.9v4h-32.7v-56.5h4.8V432z"/>
	<path class="st0" d="M638.5,383.5h-19.4V436h-4.8v-52.5H595v-4h43.5V383.5z"/>
	<path class="st0" d="M649.3,436v-56.5h15.8c4.6,0,8.8,1.1,12.5,3.2c3.7,2.1,6.5,5.1,8.6,9.1c2.1,3.9,3.1,8.4,3.1,13.4v5.2
		c0,5-1,9.5-3.1,13.4c-2,3.9-4.9,6.9-8.6,9c-3.7,2.1-8,3.2-12.8,3.2H649.3z M654,383.5V432h10.7c6,0,10.7-2,14.3-5.9
		c3.6-4,5.4-9.3,5.4-16v-5c0-6.5-1.8-11.7-5.3-15.6c-3.5-3.9-8.2-5.9-14-5.9H654z"/>
	<path class="st0" d="M697.4,433.2c0-0.9,0.3-1.7,0.9-2.3c0.6-0.6,1.4-1,2.4-1c1,0,1.9,0.3,2.4,1c0.6,0.6,0.9,1.4,0.9,2.3
		c0,0.9-0.3,1.7-0.9,2.2c-0.6,0.6-1.4,0.9-2.4,0.9c-1,0-1.8-0.3-2.4-0.9C697.7,434.9,697.4,434.1,697.4,433.2z"/>
</g>
<g>
	<polygon class="st0" points="233,227.4 199.3,227.4 199.3,193.8 168.5,193.8 168.5,227.4 134.8,227.4 134.8,258.3 168.5,258.3 
		168.5,291.9 199.3,291.9 199.3,258.3 233,258.3 	"/>
	<g>
		<g>
			<path class="st0" d="M285.4,210.2c-12.9,7.5-23,18.1-30.1,31.7c-5.9,11.7-8.9,24.1-8.9,36.9c0,22.7,8.2,42,24.4,57.5
				c16.1,15.4,35.8,23.3,58.6,23.3c8,0,17.4-1.8,27.9-5.3l2-0.7v-32l-4.4,2.5c-7.4,4.1-15.5,6.2-24.3,6.2c-14.7,0-27.3-5-37.5-14.8
				c-10.3-9.9-15.3-21.9-15.3-36.8c0-14.8,5.1-26.9,15.5-36.9c10.3-9.9,23.1-14.9,38-14.9h31.2v131.5h29.7V199h-64.1
				C312.6,199,298.2,202.7,285.4,210.2z"/>
			<path class="st0" d="M520.3,199h-34.3c-15.5,0-29.9,3.8-42.7,11.2c-12.9,7.5-23,18.1-30.1,31.6l0,0c-5.9,11.7-8.9,24.1-8.9,36.9
				c0,22.7,8.2,41.9,24.2,57c16,15.1,35.8,22.8,58.7,22.8H550V158.5h-29.7V199z M520.3,327.8h-31.9c-14.9,0-27.6-4.6-37.7-13.7
				c-10.2-9.1-15.1-20.7-15.1-35.3c0-14.8,5.1-26.9,15.5-36.9c10.3-9.9,23.1-14.9,38-14.9h31.2V327.8z"/>
			<path class="st0" d="M677.3,158.5V199H643c-15.5,0-29.9,3.8-42.7,11.2c-12.9,7.5-23,18.1-30.1,31.6l0,0
				c-5.9,11.7-8.9,24.1-8.9,36.9c0,22.7,8.2,41.9,24.2,57c16,15.1,35.8,22.8,58.7,22.8h62.8V158.5H677.3z M645.4,327.8
				c-14.9,0-27.6-4.6-37.7-13.7c-10.2-9.1-15.1-20.7-15.1-35.3c0-14.8,5.1-26.9,15.5-36.9c10.3-9.9,23.1-14.9,38-14.9h31.2v100.8
				H645.4z"/>
		</g>
	</g>
</g>
</svg>
