<?xml version="1.0" encoding="utf-8"?>
<!-- Generator: Adobe Illustrator 21.0.0, SVG Export Plug-In . SVG Version: 6.00 Build 0)  -->
<svg version="1.1" id="Layer_1" xmlns="http://www.w3.org/2000/svg" xmlns:xlink="http://www.w3.org/1999/xlink" x="0px" y="0px"
	 viewBox="0 0 200 146" style="enable-background:new 0 0 200 146;" xml:space="preserve">
<style type="text/css">
	.st0{fill:#4285F4;}
	.st1{fill:none;stroke:#4285F4;stroke-width:2.8111;stroke-linecap:round;stroke-miterlimit:10;}
	.st2{fill:none;stroke:#4285F4;stroke-width:2.3845;stroke-linecap:round;stroke-miterlimit:10;}
</style>
<path class="st0" d="M152.7,47.8c0-4.1-3.3-7.4-7.4-7.4l0,0l-86.8,0.1c-4.1,0-7.4,3.3-7.4,7.4V53h2.7v-5.2c0-2.6,2.1-4.7,4.7-4.7
	l86.8-0.1l0,0c2.6,0,4.7,2.1,4.7,4.7V53h2.7V47.8z"/>
<path class="st0" d="M152.7,52H150l0.1,46.2c0,2.6-2.1,4.7-4.7,4.7L58.6,103c-1.3,0-2.5-0.5-3.3-1.4c-0.8-0.8-1.4-2-1.4-3.3V52h-2.7
	l0.1,46.4c0,4.1,3.3,7.4,7.4,7.4l86.8-0.1c2,0,3.8-0.8,5.2-2.2c1.4-1.4,2.2-3.3,2.2-5.2L152.7,52z"/>
<polygon class="st0" points="78.3,57.1 83.2,67.1 94.3,68.7 86.3,76.5 88.2,87.5 78.3,82.3 68.4,87.5 70.3,76.5 62.3,68.7 
	73.4,67.1 "/>
<line class="st1" x1="104.3" y1="65.5" x2="140.3" y2="65.5"/>
<line class="st2" x1="104.3" y1="73.5" x2="130.2" y2="73.5"/>
<line class="st2" x1="104.3" y1="81.5" x2="130.2" y2="81.5"/>
</svg>
