<svg id="Layer_1" data-name="Layer 1" xmlns="http://www.w3.org/2000/svg" width="172.36" height="189.92" viewBox="0 0 172.36 189.92"><defs><style>.cls-1{fill:none;stroke:#4285f4;stroke-linecap:round;stroke-miterlimit:10;stroke-width:4.3px;}</style></defs><title>business process-02</title><circle class="cls-1" cx="77.31" cy="122.93" r="12.39"/><line class="cls-1" x1="60.11" y1="130.01" x2="65.93" y2="127.61"/><line class="cls-1" x1="88.82" y1="118.13" x2="94.63" y2="115.72"/><line class="cls-1" x1="70.23" y1="105.73" x2="72.63" y2="111.42"/><line class="cls-1" x1="82.11" y1="134.31" x2="84.52" y2="140.13"/><line class="cls-1" x1="60.11" y1="115.72" x2="65.93" y2="118.13"/><line class="cls-1" x1="88.82" y1="127.61" x2="94.63" y2="130.01"/><line class="cls-1" x1="84.52" y1="105.73" x2="82.11" y2="111.42"/><line class="cls-1" x1="72.63" y1="134.31" x2="70.23" y2="140.13"/><circle class="cls-1" cx="100.09" cy="100.18" r="9.99" transform="translate(-30.72 45.93) rotate(-22.5)"/><line class="cls-1" x1="89.45" y1="110.79" x2="92.99" y2="107.25"/><line class="cls-1" x1="107.15" y1="93.09" x2="110.82" y2="89.55"/><line class="cls-1" x1="89.45" y1="89.55" x2="92.99" y2="93.09"/><line class="cls-1" x1="107.15" y1="107.25" x2="110.82" y2="110.79"/><line class="cls-1" x1="85.02" y1="100.17" x2="90.08" y2="100.17"/><line class="cls-1" x1="110.19" y1="100.17" x2="115.12" y2="100.17"/><line class="cls-1" x1="100.07" y1="85.12" x2="100.07" y2="90.05"/><line class="cls-1" x1="100.07" y1="110.16" x2="100.07" y2="115.22"/><path class="cls-1" d="M90,66.91a48,48,0,0,0-42.36,76.5"/><path class="cls-1" d="M82.11,162.64a48,48,0,0,0,42.61-76.5"/><polyline class="cls-1" points="76.17 56.93 90.84 66.16 81.61 80.95"/><polyline class="cls-1" points="94 171.24 81.48 163.4 89.32 150.88"/></svg>