<svg id="Layer_1" data-name="Layer 1" xmlns="http://www.w3.org/2000/svg" width="172.36" height="195.92" viewBox="0 0 172.36 195.92"><defs><style>.cls-1,.cls-2{fill:none;stroke:#4285f4;stroke-linecap:round;stroke-width:2.68px;}.cls-1{stroke-miterlimit:10;}.cls-2{stroke-linejoin:round;}</style></defs><title>cloud computing-02</title><path class="cls-1" d="M103.16,129.83h21.69a15.11,15.11,0,0,0-.27-30.21,17.52,17.52,0,0,0-1.77.11A20.68,20.68,0,0,0,104.17,88a21,21,0,0,0-8.25,1.71,24.38,24.38,0,0,0-41-1.12,15,15,0,0,0-1.55-.05,20.68,20.68,0,0,0-.54,41.35H63.42"/><line class="cls-2" x1="94.59" y1="144.4" x2="94.59" y2="112.9"/><line class="cls-2" x1="74.61" y1="144.4" x2="74.61" y2="112.9"/><line class="cls-2" x1="94.59" y1="112.9" x2="100.21" y2="117.4"/><line class="cls-2" x1="94.59" y1="112.9" x2="88.97" y2="117.4"/><line class="cls-2" x1="74.56" y1="144.61" x2="68.93" y2="140.16"/><line class="cls-2" x1="74.61" y1="144.61" x2="80.23" y2="140.16"/></svg>