<svg id="Layer_1" data-name="Layer 1" xmlns="http://www.w3.org/2000/svg" width="172.36" height="189.92" viewBox="0 0 172.36 189.92"><defs><style>.cls-1{fill:#4e85f2;}.cls-2,.cls-3,.cls-4{fill:none;stroke:#4e85f2;stroke-linejoin:round;stroke-width:2.1px;}.cls-3{opacity:0.15;}.cls-3,.cls-4{isolation:isolate;}.cls-4{opacity:0.67;}</style></defs><title>ecom</title><g id="SHOPPING_CART" data-name="SHOPPING CART"><path class="cls-1" d="M105.18,82.92H75.88l-1.3-3.7a1.17,1.17,0,0,0-1.1-.8h-5.8a1.2,1.2,0,0,0,0,2.4h5l8,22.9h-4.6a3.1,3.1,0,1,0,3.1,3.1V106h19.6v.8a3.1,3.1,0,1,0,3.1-3.1H83.08l-1.5-4.2,17.8-1.2a1.2,1.2,0,0,0,1-.7l5.5-12.2.3-.8a.9.9,0,0,0,.1-.5A1,1,0,0,0,105.18,82.92Zm-6.6,13-17.7,1.2-4.1-11.8h26.6Z"/></g><path class="cls-2" d="M101.25,147.16a6.42,6.42,0,0,1-.84-3.15v-7.35h.21C100.52,142,100.41,145.16,101.25,147.16Z"/><path class="cls-2" d="M102.3,148.84H69.74c.74-.84.42-1.68.84-4.31v-7.77h29.83v7.35a8.27,8.27,0,0,0,.84,3.15,4.59,4.59,0,0,0,1.05,1.58Z"/><path class="cls-3" d="M102.3,148.84a5.89,5.89,0,0,1-1.05-1.58A13.68,13.68,0,0,0,102.3,148.84Z"/><rect class="cls-2" x="135.38" y="70.49" width="0.11" height="1.26"/><path class="cls-2" d="M139.48,80.15l.11,43.27-106.81.11v8.93a4.26,4.26,0,0,0,4.31,4.31h63.54l34.76-.11a4.26,4.26,0,0,0,4.31-4.31Zm-50.2,50.31a3.07,3.07,0,0,1-5.46,1.68,5.86,5.86,0,0,1-.53-.84,3.78,3.78,0,0,1-.21-1.16,3.15,3.15,0,0,1,6.3,0A.39.39,0,0,0,89.28,130.46Z"/><path class="cls-2" d="M139.48,80.15V61.45a4.26,4.26,0,0,0-4.31-4.31L37,57.25a4.26,4.26,0,0,0-4.31,4.31V80.25l.11,43.27,106.81-.11Zm-4,37.49-98.62.11-.11-47.16v-.84h0v-6.3h0v-.21l98.62-.11v.21h.21v6.3h-.11v2.1h-.11Z"/><polygon class="cls-2" points="32.77 123.63 32.67 123.63 32.67 80.36 32.77 123.63"/><polygon class="cls-2" points="135.59 69.54 135.49 69.54 135.49 71.75 135.38 71.75 135.38 70.49 36.87 70.59 36.77 70.59 36.77 69.75 36.77 69.75 36.66 63.34 36.77 63.34 36.77 63.13 135.38 63.03 135.38 63.24 135.59 63.24 135.59 69.54"/><polygon class="cls-2" points="135.38 70.49 36.87 70.59 36.77 70.59 36.77 69.75 36.77 63.34 36.77 63.13 135.38 63.03 135.38 63.24 135.38 70.49"/><polygon class="cls-2" points="135.59 69.54 135.49 69.54 135.49 71.75 135.38 71.75 135.38 70.49 36.87 70.59 36.87 69.75 36.77 69.75 36.66 63.34 36.77 63.34 135.38 63.24 135.59 63.24 135.59 69.54"/><path class="cls-4" d="M89.28,130.14v.32a3.07,3.07,0,0,1-5.46,1.68,5.86,5.86,0,0,1-.53-.84,3.78,3.78,0,0,1-.21-1.16,3.1,3.1,0,1,1,6.2,0Z"/><path class="cls-2" d="M108,152l-44.85.11a3,3,0,0,1,.95-2.21,2.86,2.86,0,0,1,2.21-.95h38.54A3,3,0,0,1,108,152Z"/><path class="cls-1" d="M40.86,65.55h0a1.44,1.44,0,0,0-1.58,1.26c0,.63.74,1.16,1.58,1.16h0c.84,0,1.58-.53,1.58-1.16s-.63-1.26-1.58-1.26Z"/><path class="cls-1" d="M47.79,65.55h0a1.44,1.44,0,0,0-1.58,1.26c0,.63.74,1.16,1.58,1.16h0c.84,0,1.58-.53,1.58-1.16a1.44,1.44,0,0,0-1.58-1.26Z"/><path class="cls-1" d="M54.72,65.55h0a1.44,1.44,0,0,0-1.58,1.26c0,.63.74,1.16,1.58,1.16h0a1.44,1.44,0,0,0,1.58-1.26c0-.63-.74-1.16-1.58-1.16Z"/></svg>