<svg id="Layer_1" data-name="Layer 1" xmlns="http://www.w3.org/2000/svg" width="172.36" height="189.92" viewBox="0 0 172.36 189.92"><defs><style>.cls-1{fill:none;stroke:#4e85f2;stroke-linejoin:round;stroke-width:2.51px;}.cls-2{fill:#4e85f2;}</style></defs><title>mob app-01</title><path class="cls-1" d="M150.15,59.75a7.21,7.21,0,0,0-2.29-5.26,8.35,8.35,0,0,0-5.26-2.26H98.53A7.54,7.54,0,0,0,91,59.75l.25,103A7.21,7.21,0,0,0,93.52,168a8.35,8.35,0,0,0,5.26,2.26h44.08a7.54,7.54,0,0,0,7.52-7.52Zm-29.29,106a4.49,4.49,0,0,1-4.51-4.47s0,0,0,0a4.64,4.64,0,1,1,4.77,4.51Z"/><polygon class="cls-1" points="110.31 57.49 132.11 57.49 132.11 60 110.31 60 110.31 57.49"/><path class="cls-2" d="M125.59,161.23a4.51,4.51,0,0,1-9,0,4.71,4.71,0,0,1,4.51-4.76C123.34,156.47,125.34,158.72,125.59,161.23Z"/><rect class="cls-1" x="96.27" y="66.26" width="48.86" height="85.44" transform="translate(-0.15 0.17) rotate(-0.08)"/><path id="CODE" class="cls-2" d="M140.12,112.62h0l-7.52,7.52h0a1.91,1.91,0,0,1-1.25.5,2,2,0,0,1-2-2,1.91,1.91,0,0,1,.5-1.25h0l6.26-6.26-6.25-6.28h0a1.91,1.91,0,0,1-.5-1.25,2,2,0,0,1,2-2,1.91,1.91,0,0,1,1.25.5h0l7.52,7.52a1.52,1.52,0,0,1,.75,1.5A2.17,2.17,0,0,1,140.12,112.62ZM117.57,124.9a1.88,1.88,0,0,1-1.75,1.25,2,2,0,0,1-2-2v-.75l10-26.31a1.88,1.88,0,0,1,1.75-1.25,2,2,0,0,1,2,2v.75Zm-6.26-19.79L105,111.37l6.26,6.26h0a1.91,1.91,0,0,1,.5,1.25,2,2,0,0,1-2,2,1.91,1.91,0,0,1-1.25-.5h0L101,112.86h0a1.91,1.91,0,0,1-.5-1.25,2.17,2.17,0,0,1,.75-1.5l7.52-7.52h0a1.91,1.91,0,0,1,1.25-.5,2,2,0,0,1,2,2,4.33,4.33,0,0,1-.75,1Z"/></svg>