<svg id="Layer_1" data-name="Layer 1" xmlns="http://www.w3.org/2000/svg" width="172.36" height="222.48" viewBox="0 0 172.36 222.48"><defs><style>.cls-1{fill:#4285f4;}.cls-2,.cls-3,.cls-4{fill:none;}.cls-3,.cls-4{stroke:#4285f4;stroke-miterlimit:10;stroke-width:3.16px;}.cls-4{stroke-linecap:round;}</style></defs><title>ux</title><path class="cls-1" d="M131.81,68.59a4.92,4.92,0,0,1,4.92,4.92v6.1l-101.2.15v-6.1a4.92,4.92,0,0,1,4.92-4.93l91.35-.13h0m0-2.86h0l-91.36.13a7.79,7.79,0,0,0-7.77,7.79v9h2.86l101.2-.15h2.86v-9a7.79,7.79,0,0,0-7.78-7.77"/><path class="cls-1" d="M136.74,82.47l.1,66.35a4.92,4.92,0,0,1-4.92,4.93l-91.35.13h0A4.92,4.92,0,0,1,35.63,149l-.1-66.35,101.2-.15m2.85-2.86h-2.86l-101.2.15H32.67v2.86l.1,66.35a7.79,7.79,0,0,0,7.78,7.77l91.37-.13a7.78,7.78,0,0,0,7.77-7.79l-.1-66.35Z"/><path class="cls-1" d="M42.77,73.69h0a1.67,1.67,0,0,0,0,3.35h0a1.67,1.67,0,1,0,0-3.35"/><path class="cls-1" d="M49.21,73.68h0a1.67,1.67,0,0,0,0,3.35h0a1.67,1.67,0,1,0,0-3.35"/><path class="cls-1" d="M57.29,73.67h0a1.67,1.67,0,0,0,0,3.35h0a1.67,1.67,0,0,0,0-3.35"/><path class="cls-2" d="M35.54,82.62l.1,66.35a4.92,4.92,0,0,0,4.93,4.92l91.35-.13a4.92,4.92,0,0,0,4.91-4.93l-.1-66.35Z"/><rect class="cls-3" x="60.2" y="92.79" width="51.59" height="13.69" rx="6.84" ry="6.84"/><rect class="cls-3" x="41.24" y="125.43" width="24.22" height="13.69" rx="4.69" ry="4.69" transform="translate(185.63 78.93) rotate(90)"/><rect class="cls-3" x="63.36" y="125.43" width="24.22" height="13.69" rx="4.69" ry="4.69" transform="translate(207.74 56.81) rotate(90)"/><rect class="cls-3" x="85.47" y="125.43" width="24.22" height="13.69" rx="4.69" ry="4.69" transform="translate(229.85 34.7) rotate(90)"/><rect class="cls-3" x="107.58" y="125.43" width="24.22" height="13.69" rx="4.69" ry="4.69" transform="translate(251.97 12.59) rotate(90)"/><line class="cls-4" x1="53.35" y1="112.27" x2="119.69" y2="112.27"/><line class="cls-3" x1="85.99" y1="107.01" x2="85.99" y2="112.27"/><line class="cls-3" x1="97.58" y1="112.27" x2="97.58" y2="119.64"/><line class="cls-4" x1="119.69" y1="113.33" x2="119.69" y2="119.64"/><line class="cls-4" x1="53.35" y1="112.27" x2="53.35" y2="119.64"/><line class="cls-4" x1="75.46" y1="112.27" x2="75.46" y2="119.64"/></svg>