<svg id="Layer_1" data-name="Layer 1" xmlns="http://www.w3.org/2000/svg" width="177" height="189.92" viewBox="0 0 177 189.92"><defs><style>.cls-1{fill:#4285f4;}.cls-2,.cls-3,.cls-4{fill:none;}.cls-3,.cls-4{stroke:#4285f4;stroke-miterlimit:10;stroke-width:3px;}.cls-4{stroke-linecap:round;}</style></defs><title>ux</title><path class="cls-1" d="M131.8,70.87a4.69,4.69,0,0,1,4.7,4.7v5.8l-96.1.1v-5.8A4.69,4.69,0,0,1,45.1,71l86.7-.1h0m0-2.7h0l-86.8.1a7.38,7.38,0,0,0-7.4,7.4v8.5h2.7l96.1-.1h2.7v-8.5a7.24,7.24,0,0,0-7.3-7.4"/><path class="cls-1" d="M136.5,84.07l.1,63a4.69,4.69,0,0,1-4.7,4.7l-86.7.1h0a4.69,4.69,0,0,1-4.7-4.7l-.1-63,96.1-.1m2.7-2.7h-2.7l-96.1.1H37.7v2.7l.1,63a7.38,7.38,0,0,0,7.4,7.4l86.8-.1a7.26,7.26,0,0,0,5.2-2.2,7.44,7.44,0,0,0,2.2-5.2l-.1-63Z"/><path class="cls-1" d="M47.2,75.77h0a1.6,1.6,0,1,0,0,3.2h0a1.6,1.6,0,1,0,0-3.2"/><path class="cls-1" d="M53.4,75.77h0a1.6,1.6,0,1,0,0,3.2h0a1.58,1.58,0,0,0,1.6-1.6,1.64,1.64,0,0,0-1.6-1.6"/><path class="cls-1" d="M61,75.67h0a1.6,1.6,0,0,0,0,3.2h0a1.58,1.58,0,0,0,1.6-1.6,1.64,1.64,0,0,0-1.6-1.6"/><path class="cls-2" d="M40.4,84.17l.1,63a4.69,4.69,0,0,0,4.7,4.7l86.8-.1a4.69,4.69,0,0,0,4.7-4.7l-.1-63Z"/><path class="cls-3" d="M106.3,106.87h-36a6.49,6.49,0,0,1-6.5-6.5h0a6.49,6.49,0,0,1,6.5-6.5h36a6.49,6.49,0,0,1,6.5,6.5h0A6.49,6.49,0,0,1,106.3,106.87Z"/><path class="cls-3" d="M50.8,138.37v-14.1a4.55,4.55,0,0,1,4.5-4.5h4.1a4.55,4.55,0,0,1,4.5,4.5v14.1a4.55,4.55,0,0,1-4.5,4.5H55.3A4.48,4.48,0,0,1,50.8,138.37Z"/><path class="cls-3" d="M71.8,138.37v-14.1a4.55,4.55,0,0,1,4.5-4.5h4.1a4.55,4.55,0,0,1,4.5,4.5v14.1a4.55,4.55,0,0,1-4.5,4.5H76.3A4.48,4.48,0,0,1,71.8,138.37Z"/><path class="cls-3" d="M92.8,138.37v-14.1a4.55,4.55,0,0,1,4.5-4.5h4.1a4.55,4.55,0,0,1,4.5,4.5v14.1a4.55,4.55,0,0,1-4.5,4.5H97.3A4.48,4.48,0,0,1,92.8,138.37Z"/><path class="cls-3" d="M113.8,138.37v-14.1a4.55,4.55,0,0,1,4.5-4.5h4.1a4.55,4.55,0,0,1,4.5,4.5v14.1a4.55,4.55,0,0,1-4.5,4.5h-4.1A4.48,4.48,0,0,1,113.8,138.37Z"/><line class="cls-4" x1="57.3" y1="112.37" x2="120.3" y2="112.37"/><line class="cls-3" x1="88.3" y1="107.37" x2="88.3" y2="112.37"/><line class="cls-3" x1="99.3" y1="112.37" x2="99.3" y2="119.37"/><line class="cls-4" x1="120.3" y1="113.37" x2="120.3" y2="119.37"/><line class="cls-4" x1="57.3" y1="112.37" x2="57.3" y2="119.37"/><line class="cls-4" x1="78.3" y1="112.37" x2="78.3" y2="119.37"/></svg>