<svg id="Layer_1" data-name="Layer 1" xmlns="http://www.w3.org/2000/svg" xmlns:xlink="http://www.w3.org/1999/xlink" width="155" height="128" viewBox="0 0 155 128"><defs><style>.cls-1,.cls-4{fill:none;}.cls-2{fill:#4285f4;}.cls-3{clip-path:url(#clip-path);}.cls-4{stroke:#4285f4;stroke-miterlimit:10;stroke-width:2.08px;}</style><clipPath id="clip-path"><path class="cls-1" d="M37.06,60.37l.07,48.57a3.59,3.59,0,0,0,3.59,3.63L107,112.5a3.59,3.59,0,0,0,3.59-3.63l-.07-48.57Z"/></clipPath></defs><title>web app</title><path class="cls-2" d="M106.88,50.11a3.63,3.63,0,0,1,3.59,3.63v4.47l-73.41.14V53.88a3.59,3.59,0,0,1,3.59-3.63l66.22-.14h0m0-2.09h0l-66.29.07a5.72,5.72,0,0,0-5.67,5.72v6.56H37l73.41-.14h2.07V53.67a5.56,5.56,0,0,0-5.6-5.65Z"/><path class="cls-2" d="M110.47,60.23l.07,48.57a3.59,3.59,0,0,1-3.59,3.63l-66.29.07h0a3.59,3.59,0,0,1-3.59-3.63L37,60.3l73.48-.07m2.07-2.09h-2.07l-73.41.14H35v2.09l.07,48.57a5.72,5.72,0,0,0,5.67,5.72L107,114.6a5.69,5.69,0,0,0,5.67-5.72l-.07-48.57-.07-2.16Z"/><path class="cls-2" d="M42.31,53.81h0a1.26,1.26,0,0,0,0,2.51h0a1.25,1.25,0,0,0,1.24-1.26,1.29,1.29,0,0,0-1.24-1.26Z"/><path class="cls-2" d="M46.95,53.81h0a1.26,1.26,0,0,0,0,2.51h0a1.26,1.26,0,0,0,0-2.51Z"/><path class="cls-2" d="M52.82,53.81h0a1.26,1.26,0,0,0,0,2.51h0a1.26,1.26,0,0,0,0-2.51Z"/><polygon class="cls-2" points="96.92 64.63 92.98 67.42 92.98 67.98 94.78 67.98 96.92 66.51 96.92 64.63"/><polygon class="cls-2" points="94.78 67.98 92.98 67.98 92.98 68.61 96.92 71.4 96.92 69.51 94.78 67.98"/><polygon class="cls-2" points="103.28 64.63 103.28 66.44 105.43 67.98 107.22 67.98 107.22 67.35 103.28 64.63"/><polygon class="cls-2" points="107.22 67.98 105.43 67.98 105.43 67.98 103.28 69.51 103.28 71.33 107.22 68.61 107.22 67.98"/><polygon class="cls-2" points="102.11 63.37 100.66 63.44 97.96 72.1 99.62 71.96 102.11 63.37"/><path class="cls-2" d="M43.7,68.54h0c-2.56,0-4.63.42-4.63,1s2.07.91,4.56.91h0c2.49,0,4.56-.42,4.56-1s-2-.91-4.49-.91Z"/><path class="cls-2" d="M46.19,73h0c-1.87,0-3.39.42-3.39,1s1.52.91,3.32.91h0c1.87,0,3.39-.42,3.39-1S48,73,46.19,73Z"/><path class="cls-2" d="M42.45,77.61h0c-1.87,0-3.39.42-3.39,1s1.52.91,3.32.91h0c1.87,0,3.39-.42,3.39-1s-1.45-.91-3.32-.91Z"/><path class="cls-2" d="M44.18,81.94h0c-2.83,0-5.12.42-5.12,1s2.28.91,5,.91h.07c2.77,0,5-.42,5-1s-2.28-.91-5-.91Z"/><path class="cls-2" d="M46.39,86.4h0c-2.56,0-4.63.42-4.63,1s2.07.91,4.56.91h0c2.49,0,4.56-.42,4.56-1S49,86.4,46.39,86.4Z"/><path class="cls-2" d="M57.32,86.33h0c-1.73,0-3.11.42-3.11.91s1.38.91,3,.91h0c1.73,0,3.11-.42,3.11-.91s-1.38-.91-3-.91Z"/><path class="cls-2" d="M69.83,86.33h0c-2.83,0-5.12.42-5.12,1s2.28.91,5,.91h.07c2.77,0,5-.42,5-1s-2.28-.91-5-.91Z"/><path class="cls-2" d="M46.95,90.73h0c-2.83,0-5.12.42-5.12,1s2.28.91,5,.91h.07c2.77,0,5-.42,5-1s-2.28-.91-5-.91Z"/><path class="cls-2" d="M56.9,90.66h0c-1.59,0-3,.42-3,.91s1.31.91,2.9.91h0c1.59,0,2.9-.42,2.9-.91s-1.24-.91-2.83-.91Z"/><path class="cls-2" d="M65.75,90.66h0c-1.59,0-3,.42-3,.91s1.31.91,2.9.91h0c1.59,0,2.9-.42,2.9-.91s-1.24-.91-2.83-.91Z"/><path class="cls-2" d="M46.95,96h0c-2.83,0-5.12.42-5.12,1s2.28.91,5,.91h.07c2.77,0,5-.42,5-1s-2.28-.91-5-.91Z"/><path class="cls-2" d="M44,101.69h0c-1.94,0-3.53.42-3.53,1s1.59.91,3.46.91h0c1.94,0,3.53-.42,3.53-1s-1.52-.91-3.46-.91Z"/><path class="cls-2" d="M56.9,96h0c-1.59,0-3,.42-3,.91s1.31.91,2.9.91h0c1.59,0,2.9-.42,2.9-.91S58.49,96,56.9,96Z"/><path class="cls-2" d="M65.75,96h0c-1.59,0-3,.42-3,.91s1.31.91,2.9.91h0c1.59,0,2.9-.42,2.9-.91S67.34,96,65.75,96Z"/><path class="cls-2" d="M55.86,73h0c-1.87,0-3.39.42-3.39,1s1.52.91,3.32.91h0c1.87,0,3.39-.42,3.39-1S57.73,73,55.86,73Z"/><path class="cls-2" d="M64.92,73h0c-1.31,0-2.35.42-2.35.91s1,.91,2.28.91h0c1.24,0,2.35-.42,2.35-.91s-1-.91-2.28-.91Z"/><path class="cls-2" d="M74.11,73h0c-.9,0-1.66.42-1.66.91s.76.91,1.66.91h0c.9,0,1.66-.42,1.66-.91S75,73,74.11,73Z"/><g class="cls-3"><path class="cls-2" d="M115.73,100.5a5.76,5.76,0,0,1-.76-8A5.35,5.35,0,0,1,117,91a12.74,12.74,0,0,0-1.11-2.16,6.23,6.23,0,0,1-2.28.7,5.6,5.6,0,0,1-5.94-5.3,5.08,5.08,0,0,1,.41-2.51,12.74,12.74,0,0,0-2.28-.84A5.43,5.43,0,0,1,104.53,83a5.62,5.62,0,0,1-7.95.28,5.81,5.81,0,0,1-1.38-2.09,12.56,12.56,0,0,0-2.21,1,5.4,5.4,0,0,1,.48,2.37,5.6,5.6,0,0,1-5.6,5.65,5.38,5.38,0,0,1-2.42-.56,17.26,17.26,0,0,0-1.73,5,6.3,6.3,0,0,1,1,.49,5.68,5.68,0,0,1,1.73,7.82,5.25,5.25,0,0,1-1.59,1.67A15.9,15.9,0,0,0,86.69,108a5.93,5.93,0,0,1,1.94-.77,5.66,5.66,0,0,1,6.43,7.19,21.72,21.72,0,0,0,3,.84,5.79,5.79,0,0,1,1-2.23,5.58,5.58,0,0,1,7.81-1.26,6.14,6.14,0,0,1,1.66,1.88,14.74,14.74,0,0,0,2.07-1.19,6.55,6.55,0,0,1-.83-2.3,5.64,5.64,0,0,1,4.91-6.28,4.92,4.92,0,0,1,2.49.28c.28-.77.48-1.54.69-2.3A11.09,11.09,0,0,1,115.73,100.5Zm-14.93,4.26a6.07,6.07,0,1,1,6-6.07A6,6,0,0,1,100.8,104.76Z"/></g><g class="cls-3"><path class="cls-2" d="M88.42,78.38a1.79,1.79,0,0,1-.21-2.51,3.8,3.8,0,0,1,.62-.49,3.27,3.27,0,0,0-.35-.7,1.32,1.32,0,0,1-.69.21,1.78,1.78,0,0,1-1.87-1.67,1.39,1.39,0,0,1,.14-.77,2.87,2.87,0,0,0-.69-.28,1.26,1.26,0,0,1-.41.63,1.74,1.74,0,0,1-2.49.07,1.65,1.65,0,0,1-.41-.63c-.21.07-.48.21-.69.28a2.53,2.53,0,0,1,.14.77A1.72,1.72,0,0,1,79.78,75a1.38,1.38,0,0,1-.76-.21,6.29,6.29,0,0,0-.55,1.61c.07.07.21.07.28.14A1.81,1.81,0,0,1,79.3,79a1.09,1.09,0,0,1-.48.49,7.65,7.65,0,0,0,.55,1,1,1,0,0,1,.62-.21,1.8,1.8,0,0,1,2.07,1.4,1.73,1.73,0,0,1-.07.84,3.93,3.93,0,0,0,1,.28,2.93,2.93,0,0,1,.28-.7,1.82,1.82,0,0,1,2.49-.42,1.11,1.11,0,0,1,.48.63c.21-.14.41-.21.62-.35a2.1,2.1,0,0,1-.28-.7,1.7,1.7,0,0,1,1.52-2,2.57,2.57,0,0,1,.76.07c.07-.21.14-.49.21-.7A1.91,1.91,0,0,1,88.42,78.38ZM83.79,79.7a1.88,1.88,0,1,1,1.87-1.88A1.87,1.87,0,0,1,83.79,79.7Z"/></g><path class="cls-4" d="M111.44,81h16a19.68,19.68,0,0,0-.35-39.36c-.76,0-1.52.07-2.28.14a26.51,26.51,0,0,0-34.7-13.12,31.31,31.31,0,0,0-53-1.47,19.24,19.24,0,0,0-2-.07A26.95,26.95,0,0,0,34.43,81h1.45"/></svg>