<?xml version="1.0" encoding="utf-8"?>
<!-- Generator: Adobe Illustrator 21.0.0, SVG Export Plug-In . SVG Version: 6.00 Build 0)  -->
<svg version="1.1" id="Layer_1" xmlns="http://www.w3.org/2000/svg" xmlns:xlink="http://www.w3.org/1999/xlink" x="0px" y="0px"
	 viewBox="0 0 242.4 200.4" style="enable-background:new 0 0 242.4 200.4;" xml:space="preserve">
<style type="text/css">
	.st0{fill:#4285F4;}
	.st1{clip-path:url(#SVGID_2_);}
	.st2{clip-path:url(#SVGID_4_);}
	.st3{fill:none;stroke:#4285F4;stroke-width:3;stroke-miterlimit:10;}
</style>
<g>
	<g>
		<g>
			<path class="st0" d="M170.3,80.9c2.8,0,5.2,2.3,5.2,5.2v6.4L69.3,92.7v-6.4c0-2.9,2.3-5.2,5.2-5.2L170.3,80.9L170.3,80.9
				 M170.3,77.9L170.3,77.9L74.4,78c-4.5,0-8.2,3.7-8.2,8.2v6.4v3h3l106.2-0.2h3v-3V86C178.5,81.5,174.8,77.9,170.3,77.9L170.3,77.9
				z"/>
		</g>
		<g>
			<path class="st0" d="M175.5,95.4l0.1,69.6c0,2.9-2.3,5.2-5.2,5.2l-95.9,0.1l0,0c-2.9,0-5.2-2.3-5.2-5.2l-0.1-69.6L175.5,95.4
				 M178.5,92.4h-3L69.3,92.6h-3v3l0.1,69.6c0,4.5,3.7,8.2,8.2,8.2l95.9-0.1c2.2,0,4.2-0.9,5.8-2.4c1.5-1.5,2.4-3.6,2.4-5.8
				l-0.1-69.6L178.5,92.4L178.5,92.4z"/>
		</g>
		<g>
			<path class="st0" d="M76.9,86.2L76.9,86.2c-1,0-1.8,0.8-1.8,1.8s0.8,1.8,1.8,1.8l0,0c1,0,1.8-0.8,1.8-1.8
				C78.6,87,77.9,86.2,76.9,86.2L76.9,86.2z"/>
		</g>
		<g>
			<path class="st0" d="M83.6,86.2L83.6,86.2c-1,0-1.8,0.8-1.8,1.8s0.8,1.8,1.8,1.8l0,0c1,0,1.8-0.8,1.8-1.8S84.6,86.2,83.6,86.2
				L83.6,86.2z"/>
		</g>
		<g>
			<path class="st0" d="M92.1,86.2L92.1,86.2c-1,0-1.8,0.8-1.8,1.8s0.8,1.8,1.8,1.8l0,0c1,0,1.8-0.8,1.8-1.8S93.1,86.2,92.1,86.2
				L92.1,86.2z"/>
		</g>
		<g>
			<polygon class="st0" points="155.9,101.7 150.2,105.7 150.2,106.5 152.8,106.5 155.9,104.4 			"/>
		</g>
		<g>
			<polygon class="st0" points="152.8,106.5 150.2,106.5 150.2,107.4 155.9,111.4 155.9,108.7 152.8,106.5 			"/>
		</g>
		<g>
			<polygon class="st0" points="165.1,101.7 165.1,104.3 168.2,106.5 170.8,106.5 170.8,105.6 			"/>
		</g>
		<g>
			<polygon class="st0" points="170.8,106.5 168.2,106.5 168.2,106.5 165.1,108.7 165.1,111.3 170.8,107.4 			"/>
		</g>
		<g>
			<polygon class="st0" points="163.4,99.9 161.3,100 157.4,112.4 159.8,112.2 			"/>
		</g>
		<g>
			<g>
				<g>
					<path class="st0" d="M78.9,107.3C78.8,107.3,78.8,107.3,78.9,107.3c-3.7,0-6.7,0.6-6.7,1.4c0,0.7,3,1.3,6.6,1.3l0,0
						c3.6,0,6.6-0.6,6.6-1.4C85.4,107.9,82.5,107.3,78.9,107.3L78.9,107.3z"/>
				</g>
				<g>
					<path class="st0" d="M82.5,113.7L82.5,113.7c-2.7,0-4.9,0.6-4.9,1.4c0,0.7,2.2,1.3,4.8,1.3l0,0c2.7,0,4.9-0.6,4.9-1.4
						C87.3,114.3,85.1,113.7,82.5,113.7L82.5,113.7z"/>
				</g>
				<g>
					<path class="st0" d="M77.1,120.3L77.1,120.3c-2.7,0-4.9,0.6-4.9,1.4c0,0.7,2.2,1.3,4.8,1.3l0,0c2.7,0,4.9-0.6,4.9-1.4
						C81.9,120.9,79.8,120.3,77.1,120.3L77.1,120.3z"/>
				</g>
				<g>
					<path class="st0" d="M79.6,126.5L79.6,126.5c-4.1,0-7.4,0.6-7.4,1.4c0,0.7,3.3,1.3,7.3,1.3c0,0,0,0,0.1,0c4,0,7.3-0.6,7.3-1.4
						C86.9,127.1,83.6,126.5,79.6,126.5L79.6,126.5z"/>
				</g>
				<g>
					<path class="st0" d="M82.8,132.9L82.8,132.9c-3.7,0-6.7,0.6-6.7,1.4c0,0.7,3,1.3,6.6,1.3l0,0c3.6,0,6.6-0.6,6.6-1.4
						C89.4,133.5,86.5,132.9,82.8,132.9L82.8,132.9z"/>
				</g>
				<g>
					<path class="st0" d="M98.6,132.8L98.6,132.8c-2.5,0-4.5,0.6-4.5,1.3c0,0.7,2,1.3,4.4,1.3l0,0c2.5,0,4.5-0.6,4.5-1.3
						C103,133.4,101,132.8,98.6,132.8L98.6,132.8z"/>
				</g>
				<g>
					<path class="st0" d="M116.7,132.8L116.7,132.8c-4.1,0-7.4,0.6-7.4,1.4c0,0.7,3.3,1.3,7.3,1.3c0,0,0,0,0.1,0
						c4,0,7.3-0.6,7.3-1.4C124,133.4,120.7,132.8,116.7,132.8L116.7,132.8z"/>
				</g>
				<g>
					<path class="st0" d="M83.6,139.1C83.5,139.1,83.5,139.1,83.6,139.1c-4.1,0-7.4,0.6-7.4,1.4c0,0.7,3.3,1.3,7.3,1.3
						c0,0,0,0,0.1,0c4,0,7.3-0.6,7.3-1.4C90.8,139.7,87.6,139.1,83.6,139.1L83.6,139.1z"/>
				</g>
				<g>
					<path class="st0" d="M98,139L98,139c-2.3,0-4.3,0.6-4.3,1.3c0,0.7,1.9,1.3,4.2,1.3l0,0c2.3,0,4.2-0.6,4.2-1.3
						C102.2,139.6,100.3,139,98,139L98,139z"/>
				</g>
				<g>
					<path class="st0" d="M110.8,139L110.8,139c-2.3,0-4.3,0.6-4.3,1.3c0,0.7,1.9,1.3,4.2,1.3l0,0c2.3,0,4.2-0.6,4.2-1.3
						C115,139.6,113.1,139,110.8,139L110.8,139z"/>
				</g>
				<g>
					<path class="st0" d="M83.6,146.7C83.6,146.7,83.5,146.7,83.6,146.7c-4.1,0-7.4,0.6-7.4,1.4c0,0.7,3.3,1.3,7.3,1.3
						c0,0,0,0,0.1,0c4,0,7.3-0.6,7.3-1.4C90.9,147.3,87.6,146.7,83.6,146.7L83.6,146.7z"/>
				</g>
				<g>
					<path class="st0" d="M79.3,154.8L79.3,154.8c-2.8,0-5.1,0.6-5.1,1.4c0,0.7,2.3,1.3,5,1.3l0,0c2.8,0,5.1-0.6,5.1-1.4
						C84.4,155.4,82.1,154.8,79.3,154.8L79.3,154.8z"/>
				</g>
				<g>
					<path class="st0" d="M98,146.7L98,146.7c-2.3,0-4.3,0.6-4.3,1.3c0,0.7,1.9,1.3,4.2,1.3l0,0c2.3,0,4.2-0.6,4.2-1.3
						C102.2,147.3,100.3,146.7,98,146.7L98,146.7z"/>
				</g>
				<g>
					<path class="st0" d="M110.8,146.7L110.8,146.7c-2.3,0-4.3,0.6-4.3,1.3c0,0.7,1.9,1.3,4.2,1.3l0,0c2.3,0,4.2-0.6,4.2-1.3
						C115,147.3,113.1,146.7,110.8,146.7L110.8,146.7z"/>
				</g>
				<g>
					<path class="st0" d="M96.5,113.7L96.5,113.7c-2.7,0-4.9,0.6-4.9,1.4c0,0.7,2.2,1.3,4.8,1.3l0,0c2.7,0,4.9-0.6,4.9-1.4
						C101.3,114.3,99.2,113.7,96.5,113.7L96.5,113.7z"/>
				</g>
				<g>
					<path class="st0" d="M109.6,113.7L109.6,113.7c-1.9,0-3.4,0.6-3.4,1.3c0,0.7,1.5,1.3,3.3,1.3l0,0c1.8,0,3.4-0.6,3.4-1.3
						S111.4,113.7,109.6,113.7L109.6,113.7z"/>
				</g>
				<g>
					<path class="st0" d="M122.9,113.7L122.9,113.7c-1.3,0-2.4,0.6-2.4,1.3c0,0.7,1.1,1.3,2.4,1.3l0,0c1.3,0,2.4-0.6,2.4-1.3
						C125.3,114.3,124.2,113.7,122.9,113.7L122.9,113.7z"/>
				</g>
			</g>
		</g>
	</g>
</g>
<g>
	<g>
		<g>
			<defs>
				<path id="SVGID_1_" d="M69.3,95.6l0.1,69.6c0,2.9,2.3,5.2,5.2,5.2l95.9-0.1c2.9,0,5.2-2.3,5.2-5.2l-0.1-69.6L69.3,95.6z"/>
			</defs>
			<clipPath id="SVGID_2_">
				<use xlink:href="#SVGID_1_"  style="overflow:visible;"/>
			</clipPath>
			<g class="st1">
				<path class="st0" d="M183.1,153.1c-3.4-2.9-3.9-8-1.1-11.4c0.8-1,1.8-1.7,2.9-2.2c-0.4-1.1-1-2.1-1.6-3.1c-1,0.5-2.1,0.9-3.3,1
					c-4.5,0.3-8.3-3.1-8.6-7.6c-0.1-1.3,0.1-2.5,0.6-3.6c-1.1-0.5-2.1-0.9-3.3-1.2c-0.4,1.1-0.9,2.1-1.8,3
					c-3.1,3.3-8.2,3.4-11.5,0.4c-0.9-0.9-1.6-1.9-2-3c-1.1,0.4-2.2,0.8-3.2,1.4c0.5,1,0.7,2.2,0.7,3.4c0,4.5-3.6,8.1-8.1,8.1
					c-1.3,0-2.5-0.3-3.5-0.8c-1.2,2.2-2,4.6-2.5,7.2c0.5,0.2,0.9,0.4,1.4,0.7c3.8,2.4,4.9,7.4,2.5,11.2c-0.6,1-1.4,1.8-2.3,2.4
					c0.7,1.7,1.6,3.3,2.7,4.8c0.8-0.5,1.8-0.9,2.8-1.1c4.4-0.8,8.6,2.1,9.5,6.5c0.2,1.3,0.2,2.6-0.2,3.8c1.4,0.5,2.9,0.9,4.4,1.2
					c0.2-1.1,0.7-2.2,1.4-3.2c2.6-3.6,7.7-4.4,11.3-1.8c1,0.7,1.8,1.7,2.4,2.7c1.1-0.5,2.1-1.1,3-1.7c-0.6-1-1-2.1-1.2-3.3
					c-0.5-4.4,2.6-8.5,7.1-9c1.3-0.2,2.5,0,3.6,0.4c0.4-1.1,0.7-2.2,1-3.3C185.1,154.4,184,153.9,183.1,153.1z M161.5,159.2
					c-4.8,0-8.7-3.9-8.7-8.7c0-4.8,3.9-8.7,8.7-8.7s8.7,3.9,8.7,8.7C170.3,155.3,166.4,159.2,161.5,159.2z"/>
			</g>
		</g>
		<g>
			<defs>
				<path id="SVGID_3_" d="M69.3,95.6l0.1,69.6c0,2.9,2.3,5.2,5.2,5.2l95.9-0.1c2.9,0,5.2-2.3,5.2-5.2l-0.1-69.6L69.3,95.6z"/>
			</defs>
			<clipPath id="SVGID_4_">
				<use xlink:href="#SVGID_3_"  style="overflow:visible;"/>
			</clipPath>
			<g class="st2">
				<path class="st0" d="M143.6,121.4c-1.1-0.9-1.2-2.5-0.3-3.6c0.3-0.3,0.6-0.5,0.9-0.7c-0.1-0.3-0.3-0.7-0.5-1
					c-0.3,0.2-0.7,0.3-1,0.3c-1.4,0.1-2.6-1-2.7-2.4c0-0.4,0-0.8,0.2-1.1c-0.3-0.2-0.7-0.3-1-0.4c-0.1,0.3-0.3,0.7-0.6,0.9
					c-1,1-2.6,1.1-3.6,0.1c-0.3-0.3-0.5-0.6-0.6-0.9c-0.3,0.1-0.7,0.3-1,0.4c0.1,0.3,0.2,0.7,0.2,1.1c0,1.4-1.1,2.5-2.5,2.5
					c-0.4,0-0.8-0.1-1.1-0.3c-0.4,0.7-0.6,1.5-0.8,2.3c0.1,0.1,0.3,0.1,0.4,0.2c1.2,0.8,1.5,2.3,0.8,3.5c-0.2,0.3-0.4,0.6-0.7,0.7
					c0.2,0.5,0.5,1,0.8,1.5c0.3-0.2,0.5-0.3,0.9-0.3c1.4-0.3,2.7,0.7,3,2c0.1,0.4,0,0.8-0.1,1.2c0.4,0.2,0.9,0.3,1.4,0.4
					c0.1-0.3,0.2-0.7,0.4-1c0.8-1.1,2.4-1.4,3.6-0.6c0.3,0.2,0.6,0.5,0.7,0.9c0.3-0.2,0.6-0.3,0.9-0.5c-0.2-0.3-0.3-0.6-0.4-1
					c-0.2-1.4,0.8-2.7,2.2-2.8c0.4,0,0.8,0,1.1,0.1c0.1-0.3,0.2-0.7,0.3-1C144.3,121.8,143.9,121.7,143.6,121.4z M136.9,123.3
					c-1.5,0-2.7-1.2-2.7-2.7s1.2-2.7,2.7-2.7s2.7,1.2,2.7,2.7S138.4,123.3,136.9,123.3z"/>
			</g>
		</g>
	</g>
</g>
<path class="st3" d="M176.9,125.2H200l0,0c15.4-0.3,27.7-12.8,27.7-28.2c0-15.6-12.6-28.2-28.2-28.2c-1.1,0-2.2,0.1-3.3,0.2
	c-6.2-13-19.5-22-34.8-22c-5.5,0-10.7,1.2-15.4,3.2c-8-13.2-22.5-22-39-22c-15.6,0-29.4,7.9-37.6,19.9c-1-0.1-1.9-0.1-2.9-0.1
	c-21.3,0-38.6,17.3-38.6,38.6c0,21,16.8,38.1,37.6,38.6l0,0h2.1"/>
</svg>
