<svg id="Layer_1" data-name="Layer 1" xmlns="http://www.w3.org/2000/svg" xmlns:xlink="http://www.w3.org/1999/xlink" width="172.36" height="189.92" viewBox="0 0 172.36 189.92"><defs><style>.cls-1,.cls-4{fill:none;}.cls-2{fill:#4285f4;}.cls-3{clip-path:url(#clip-path);}.cls-4{stroke:#4285f4;stroke-miterlimit:10;stroke-width:1.98px;}</style><clipPath id="clip-path"><path class="cls-1" d="M47.42,109.41l.07,45.9a3.4,3.4,0,0,0,3.4,3.4h0l63.19-.09a3.4,3.4,0,0,0,3.4-3.4h0l-.07-45.9Z"/></clipPath></defs><title>web app-02</title><path class="cls-2" d="M114,99.71a3.4,3.4,0,0,1,3.4,3.4h0v4.22l-70,.1v-4.22a3.41,3.41,0,0,1,3.4-3.41L114,99.71h0m0-2h0l-63.19.09a5.39,5.39,0,0,0-5.37,5.39v6.2h2l70-.1h2v-6.2a5.39,5.39,0,0,0-5.38-5.37Z"/><path class="cls-2" d="M117.42,109.31l.07,45.9a3.4,3.4,0,0,1-3.39,3.41h0l-63.19.09h0a3.4,3.4,0,0,1-3.41-3.39h0l-.07-45.9,70-.1m2-2h-2l-70,.1h-2v2l.07,45.9a5.39,5.39,0,0,0,5.38,5.37l63.2-.09a5.38,5.38,0,0,0,5.37-5.39h0l-.07-45.9v-2Z"/><path class="cls-2" d="M52.42,103.24h0a1.16,1.16,0,0,0,0,2.31h0a1.16,1.16,0,1,0,.22-2.31Z"/><path class="cls-2" d="M56.88,103.23h0a1.16,1.16,0,0,0,0,2.31h0a1.16,1.16,0,1,0,.22-2.31Z"/><path class="cls-2" d="M62.46,103.22h0a1.16,1.16,0,0,0,0,2.31h0a1.16,1.16,0,0,0,0-2.31Z"/><polygon class="cls-2" points="104.52 113.45 100.75 116.05 100.76 116.59 102.49 116.59 104.52 115.19 104.52 113.45 104.52 113.45"/><polygon class="cls-2" points="102.49 116.59 100.76 116.59 100.76 117.22 104.53 119.8 104.52 118.06 102.44 116.63 102.49 116.59 102.49 116.59"/><polygon class="cls-2" points="110.54 113.44 110.55 115.18 112.58 116.58 114.31 116.58 114.31 116.03 110.54 113.44 110.54 113.44"/><polygon class="cls-2" points="114.31 116.58 112.58 116.58 112.64 116.61 110.55 118.05 110.55 119.8 114.32 117.2 114.31 116.58 114.31 116.58"/><polygon class="cls-2" points="109.47 112.24 108.07 112.33 105.47 120.47 107.08 120.38 109.47 112.24 109.47 112.24"/><path class="cls-2" d="M53.76,117.16h0c-2.4,0-4.36.4-4.36.89s2,.88,4.33.88h0c2.4,0,4.36-.4,4.36-.89S56.14,117.16,53.76,117.16Z"/><path class="cls-2" d="M56.1,121.38h0c-1.76,0-3.2.4-3.2.89s1.43.88,3.19.88h0c1.76,0,3.2-.4,3.2-.89S57.86,121.38,56.1,121.38Z"/><path class="cls-2" d="M52.57,125.68h0c-1.76,0-3.2.4-3.2.89s1.43.88,3.19.88h0c1.76,0,3.2-.4,3.2-.89S54.33,125.68,52.57,125.68Z"/><path class="cls-2" d="M54.23,129.76h0c-2.66,0-4.83.41-4.83.89s2.16.88,4.8.88h0c2.66,0,4.83-.41,4.83-.89S56.87,129.76,54.23,129.76Z"/><path class="cls-2" d="M56.35,134h0c-2.4,0-4.37.4-4.37.89s2,.88,4.34.88h0c2.4,0,4.37-.4,4.37-.89S58.69,134,56.35,134Z"/><path class="cls-2" d="M66.76,134h0c-1.62,0-2.94.4-2.94.89s1.32.88,2.93.88h0c1.62,0,2.94-.4,2.94-.89S68.37,134,66.76,134Z"/><path class="cls-2" d="M78.68,133.95h0c-2.66,0-4.83.41-4.83.89s2.16.88,4.8.88h0c2.66,0,4.83-.41,4.83-.89S81.32,133.95,78.68,133.95Z"/><path class="cls-2" d="M56.83,138.06h0c-2.66,0-4.83.41-4.83.89s2.16.88,4.8.88h0c2.66,0,4.83-.41,4.83-.89S59.47,138.06,56.83,138.06Z"/><path class="cls-2" d="M66.34,138h0c-1.54,0-2.79.4-2.79.89s1.25.88,2.78.88h0c1.54,0,2.79-.4,2.79-.89S67.87,138,66.34,138Z"/><path class="cls-2" d="M74.76,138h0c-1.54,0-2.79.4-2.79.89s1.25.88,2.78.88h0c1.54,0,2.79-.4,2.79-.89S76.29,138,74.76,138Z"/><path class="cls-2" d="M56.83,143.1h0c-2.66,0-4.83.41-4.83.89s2.16.88,4.8.88h0c2.66,0,4.83-.41,4.83-.89S59.47,143.1,56.83,143.1Z"/><path class="cls-2" d="M54,148.42h0c-1.83,0-3.34.4-3.33.89s1.49.88,3.32.88h0c1.83,0,3.34-.4,3.33-.89S55.86,148.42,54,148.42Z"/><path class="cls-2" d="M66.34,143.09h0c-1.54,0-2.79.4-2.79.89s1.25.88,2.78.88h0c1.54,0,2.79-.4,2.79-.89S67.87,143.09,66.34,143.09Z"/><path class="cls-2" d="M74.76,143.07h0c-1.54,0-2.79.4-2.79.89s1.25.88,2.78.88h0c1.54,0,2.79-.4,2.79-.89S76.29,143.07,74.76,143.07Z"/><path class="cls-2" d="M65.36,121.37h0c-1.76,0-3.2.4-3.2.89s1.43.88,3.19.88h0c1.76,0,3.2-.4,3.2-.89S67.12,121.37,65.36,121.37Z"/><path class="cls-2" d="M74,121.35h0c-1.22,0-2.21.4-2.21.89s1,.88,2.21.88h0c1.22,0,2.21-.4,2.21-.89S75.18,121.35,74,121.35Z"/><path class="cls-2" d="M82.76,121.34h0c-.88,0-1.6.4-1.6.89s.72.88,1.6.88h0c.88,0,1.6-.4,1.6-.89S83.64,121.34,82.76,121.34Z"/><g class="cls-3"><path class="cls-2" d="M122.43,147.33a5.34,5.34,0,0,1,1.2-9,16.56,16.56,0,0,0-1-2.06,5.34,5.34,0,0,1-7.48-6.73,16.57,16.57,0,0,0-2.16-.8,5.34,5.34,0,0,1-10.06.22,16.58,16.58,0,0,0-2.12.9,5.34,5.34,0,0,1-7.18,7A16.48,16.48,0,0,0,92,141.61,5.35,5.35,0,0,1,93,151a16.48,16.48,0,0,0,1.78,3.23,5.34,5.34,0,0,1,7.93,6.05,16.48,16.48,0,0,0,2.93.76,5.34,5.34,0,0,1,10-1.45,16.63,16.63,0,0,0,2-1.15,5.34,5.34,0,0,1,6.14-7.86,16.5,16.5,0,0,0,.67-2.21A5.32,5.32,0,0,1,122.43,147.33Zm-14.22,4a5.76,5.76,0,1,1,5.76-5.76h0a5.76,5.76,0,0,1-5.72,5.8h0Z"/><path class="cls-2" d="M96.42,126.43a1.67,1.67,0,0,1,.34-2.82,5.21,5.21,0,0,0-.32-.65,1.65,1.65,0,0,1-.69.2,1.67,1.67,0,0,1-1.65-2.3,5.08,5.08,0,0,0-.68-.25,1.67,1.67,0,0,1-3.15.07,5.19,5.19,0,0,0-.66.28,1.67,1.67,0,0,1-2.25,2.21,5.17,5.17,0,0,0-.52,1.49,1.71,1.71,0,0,1,.29.15,1.68,1.68,0,0,1,0,2.8,5.17,5.17,0,0,0,.55,1,1.67,1.67,0,0,1,2.49,1.9,5.13,5.13,0,0,0,.92.24,1.67,1.67,0,0,1,3.12-.45,5.21,5.21,0,0,0,.63-.36,1.67,1.67,0,0,1,2-2.47,5.17,5.17,0,0,0,.21-.69A1.66,1.66,0,0,1,96.42,126.43ZM92,127.69a1.81,1.81,0,1,1,1.79-1.83s0,0,0,0a1.81,1.81,0,0,1-1.8,1.8Z"/></g><path class="cls-4" d="M118.32,128.93h15.24a18.59,18.59,0,1,0-2.48-37A25.45,25.45,0,0,0,97.94,79.51a30,30,0,0,0-50.51-1.39c-.64,0-1.28-.08-1.94-.08a25.44,25.44,0,0,0-.65,50.87h1.42"/></svg>